<?xml version="1.0" encoding="utf-8"?>
<!-- Generator: Adobe Illustrator 24.0.0, SVG Export Plug-In . SVG Version: 6.00 Build 0)  -->
<svg version="1.1" id="Layer_1" xmlns="http://www.w3.org/2000/svg" xmlns:xlink="http://www.w3.org/1999/xlink" x="0px" y="0px"
	 viewBox="0 0 1000 450" style="enable-background:new 0 0 1000 450;" xml:space="preserve">
<style type="text/css">
	.st0{fill:none;stroke:#000FFF;stroke-width:2;stroke-linecap:round;stroke-linejoin:bevel;stroke-miterlimit:10;}
</style>
<g id="Layer_1_1_">
	<g>
		<line class="st0" x1="232" y1="129.2" x2="116" y2="62.7"/>
		<line class="st0" x1="145.5" y1="393.7" x2="29.7" y2="325.9"/>
		<line class="st0" x1="319.8" y1="129.2" x2="203.7" y2="62.7"/>
		<line class="st0" x1="466.9" y1="129.2" x2="352.3" y2="62.7"/>
		<line class="st0" x1="553.2" y1="129.2" x2="437.2" y2="62.7"/>
		<line class="st0" x1="701.8" y1="129.2" x2="587.2" y2="62.7"/>
		<line class="st0" x1="875.9" y1="127.8" x2="759.8" y2="62.7"/>
		<line class="st0" x1="788.1" y1="393.8" x2="628.2" y2="301.8"/>
		<line class="st0" x1="965" y1="393.8" x2="837.7" y2="320.2"/>
		<line class="st0" x1="353.7" y1="382.5" x2="232" y2="311.7"/>
		<line class="st0" x1="628.2" y1="393.8" x2="466.9" y2="301.8"/>
		<line class="st0" x1="319.8" y1="129.2" x2="319.8" y2="320.2"/>
		<path class="st0" d="M319.8,320.2c0,40.6,32.9,73.6,73.6,73.6s73.6-35.6,73.6-73.6"/>
		<path class="st0" d="M466.9,320.2v-191V320.2z"/>
		<line class="st0" x1="553.2" y1="129.2" x2="701.8" y2="129.2"/>
		<line class="st0" x1="628.2" y1="129.2" x2="628.2" y2="393.8"/>
		<polyline class="st0" points="788.1,393.8 875.9,127.8 965,393.8 		"/>
		<line class="st0" x1="812.2" y1="320.2" x2="939.9" y2="320.2"/>
		<polyline class="st0" points="759.8,62.7 437.2,62.7 352.3,62.7 116,62.7 		"/>
		<g>
			<line class="st0" x1="232" y1="129.2" x2="232" y2="341.4"/>
			<path class="st0" d="M173.4,393.8c30.1,0.3,58.6-22.7,58.6-52.3"/>
			<line class="st0" x1="173.4" y1="393.8" x2="145.7" y2="393.8"/>
		</g>
		<g>
			<line class="st0" x1="115.7" y1="62.8" x2="115.8" y2="273.4"/>
			<path class="st0" d="M57.3,325.8c30.1,0.3,58.5-22.7,58.5-52.4"/>
			<line class="st0" x1="57.3" y1="325.8" x2="29.6" y2="325.8"/>
		</g>
	</g>
</g>
<g id="Layer_2_1_">
</g>
</svg>
