<?xml version="1.0" encoding="utf-8"?>
<!-- Generator: Adobe Illustrator 23.0.2, SVG Export Plug-In . SVG Version: 6.00 Build 0)  -->
<svg version="1.1" id="Layer_1" xmlns="http://www.w3.org/2000/svg" xmlns:xlink="http://www.w3.org/1999/xlink" x="0px" y="0px"
	 viewBox="0 0 1000 800" style="enable-background:new 0 0 1000 800;" xml:space="preserve">
<style type="text/css">
	.st0{fill:none;stroke:#6CC24A;stroke-width:5;stroke-miterlimit:10;}
</style>
<g>
	<g>
		<line class="st0" x1="237" y1="285.2" x2="121" y2="218.7"/>
		<line class="st0" x1="150.5" y1="549.7" x2="34.7" y2="481.9"/>
		<path class="st0" d="M29,213"/>
		<line class="st0" x1="324.8" y1="285.2" x2="208.7" y2="218.7"/>
		<line class="st0" x1="471.9" y1="285.2" x2="357.3" y2="218.7"/>
		<line class="st0" x1="558.2" y1="285.2" x2="442.2" y2="218.7"/>
		<line class="st0" x1="706.8" y1="285.2" x2="592.2" y2="218.7"/>
		<line class="st0" x1="880.9" y1="283.8" x2="764.8" y2="218.7"/>
		<line class="st0" x1="793.1" y1="549.8" x2="633.2" y2="457.8"/>
		<line class="st0" x1="970" y1="549.8" x2="842.7" y2="476.2"/>
		<line class="st0" x1="358.7" y1="538.5" x2="237" y2="467.7"/>
		<line class="st0" x1="633.2" y1="549.8" x2="471.9" y2="457.8"/>
		<line class="st0" x1="324.8" y1="285.2" x2="324.8" y2="476.2"/>
		<path class="st0" d="M324.8,476.2c0,40.6,32.9,73.6,73.6,73.6s73.6-32.9,73.6-73.6"/>
		<path class="st0" d="M29,213"/>
		<line class="st0" x1="471.9" y1="476.2" x2="471.9" y2="285.2"/>
		<line class="st0" x1="558.2" y1="285.2" x2="706.8" y2="285.2"/>
		<line class="st0" x1="633.2" y1="285.2" x2="633.2" y2="549.8"/>
		<polyline class="st0" points="793.1,549.8 880.9,283.8 970,549.8 		"/>
		<line class="st0" x1="817.2" y1="476.2" x2="945.9" y2="476.2"/>
		<polyline class="st0" points="764.8,218.7 442.2,218.7 357.3,218.7 121,218.7 		"/>
		<path class="st0" d="M29,213"/>
		<g>
			<line class="st0" x1="237" y1="285.2" x2="237" y2="497.4"/>
			<path class="st0" d="M178.4,549.8c30.1,0.3,58.6-22.7,58.6-52.3"/>
			<line class="st0" x1="178.4" y1="549.8" x2="150.7" y2="549.8"/>
		</g>
		<path class="st0" d="M29,213"/>
		<path class="st0" d="M29,213"/>
		<path class="st0" d="M29,213"/>
		<path class="st0" d="M29,213"/>
		<path class="st0" d="M29,213"/>
		<path class="st0" d="M29,213"/>
		<path class="st0" d="M29,213"/>
		<path class="st0" d="M29,213"/>
		<path class="st0" d="M29,213"/>
		<path class="st0" d="M29,213"/>
		<path class="st0" d="M29,213"/>
		<path class="st0" d="M29,213"/>
		<path class="st0" d="M29,213"/>
		<path class="st0" d="M29,213"/>
		<path class="st0" d="M29,213"/>
		<path class="st0" d="M29,213"/>
		<path class="st0" d="M29,213"/>
		<path class="st0" d="M29,213"/>
		<path class="st0" d="M29,213"/>
		<path class="st0" d="M29,213"/>
		<path class="st0" d="M29,213"/>
		<path class="st0" d="M29,213"/>
		<path class="st0" d="M29,213"/>
		<path class="st0" d="M29,213"/>
		<path class="st0" d="M29,213"/>
		<path class="st0" d="M29,213"/>
		<path class="st0" d="M29,213"/>
		<path class="st0" d="M29,213"/>
		<path class="st0" d="M29,213"/>
		<path class="st0" d="M29,213"/>
		<path class="st0" d="M29,213"/>
		<path class="st0" d="M29,213"/>
	</g>
	<g>
		<line class="st0" x1="120.7" y1="218.8" x2="120.8" y2="429.4"/>
		<path class="st0" d="M62.3,481.8c30.1,0.3,58.5-22.7,58.5-52.4"/>
		<line class="st0" x1="62.3" y1="481.8" x2="34.6" y2="481.8"/>
	</g>
</g>
</svg>
