<?xml version="1.0" encoding="utf-8"?>
<!-- Generator: Adobe Illustrator 24.0.0, SVG Export Plug-In . SVG Version: 6.00 Build 0)  -->
<svg version="1.1" id="Layer_1" xmlns="http://www.w3.org/2000/svg" xmlns:xlink="http://www.w3.org/1999/xlink" x="0px" y="0px"
	 viewBox="0 0 300 600" style="enable-background:new 0 0 300 600;" xml:space="preserve">
<style type="text/css">
	.st0{fill:none;stroke:#FCE300;stroke-width:2;stroke-linecap:round;stroke-linejoin:bevel;stroke-miterlimit:10;}
</style>
<g id="Layer_1_1_">
	<g>
		<line class="st0" x1="90.7" y1="468.6" x2="48.7" y2="541.8"/>
		<line class="st0" x1="257.6" y1="523.2" x2="214.8" y2="596.3"/>
		<line class="st0" x1="90.7" y1="413.2" x2="48.7" y2="486.5"/>
		<line class="st0" x1="90.7" y1="320.4" x2="48.7" y2="392.7"/>
		<line class="st0" x1="90.7" y1="265.9" x2="48.7" y2="339.1"/>
		<line class="st0" x1="90.7" y1="172.1" x2="48.7" y2="244.4"/>
		<line class="st0" x1="89.8" y1="62.2" x2="48.7" y2="135.5"/>
		<line class="st0" x1="257.7" y1="117.6" x2="199.6" y2="218.6"/>
		<line class="st0" x1="257.7" y1="6" x2="211.2" y2="86.3"/>
		<line class="st0" x1="250.6" y1="391.8" x2="205.9" y2="468.6"/>
		<line class="st0" x1="257.7" y1="218.6" x2="199.6" y2="320.4"/>
		<line class="st0" x1="90.7" y1="413.2" x2="211.2" y2="413.2"/>
		<path class="st0" d="M211.2,413.2c25.6,0,46.4-20.8,46.4-46.4c0-25.7-22.5-46.4-46.4-46.4"/>
		<path class="st0" d="M211.2,320.4H90.7H211.2z"/>
		<line class="st0" x1="90.7" y1="265.9" x2="90.7" y2="172.1"/>
		<line class="st0" x1="90.7" y1="218.6" x2="257.7" y2="218.6"/>
		<polyline class="st0" points="257.7,117.6 89.8,62.2 257.7,6 		"/>
		<line class="st0" x1="211.2" y1="102.4" x2="211.2" y2="21.8"/>
		<polyline class="st0" points="48.7,135.5 48.7,339.1 48.7,392.7 48.7,541.8 		"/>
		<g>
			<line class="st0" x1="90.7" y1="468.6" x2="224.6" y2="468.6"/>
			<path class="st0" d="M257.7,505.6c0.2-19-14.3-37-33-37"/>
			<line class="st0" x1="257.7" y1="505.6" x2="257.7" y2="523.1"/>
		</g>
		<g>
			<line class="st0" x1="48.8" y1="542" x2="181.7" y2="541.9"/>
			<path class="st0" d="M214.8,578.9c0.2-19-14.3-36.9-33.1-36.9"/>
			<line class="st0" x1="214.8" y1="578.9" x2="214.8" y2="596.3"/>
		</g>
	</g>
</g>
</svg>
